# xmcd
#
# Track frame offsets: 
#        150
#        10147
#        23107
#        36200
#        48990
#        63030
#        74580
#        88122
#        101925
#        113847
#        127402
#        140797
#        157755
#        169760
#        184422
#        202607
#        215852
#        229022
#        244032
#        256467
#
# Disc length: 3585 seconds
#
# Revision: 11
# Processed by: cddbd v1.5.2PL0 Copyright (c) Steve Scherf et al.
# Submitted via: ExactAudioCopy v0.99pb5
#
DISCID=230dff14
DTITLE=Frank Sinatra - The Best of the Capitol Years - Selections from
DTITLE=the Capitol Years Box Set
DYEAR=1992
DGENRE=Vocal
TTITLE0=I've Got the World on a String
TTITLE1=South of the Border
TTITLE2=I Get a Kick Out of You
TTITLE3=Young at Heart
TTITLE4=Three Coins in the Fountain
TTITLE5=What Is This Thing Called Love?
TTITLE6=In the Wee Small Hours of the Morning
TTITLE7=Learnin' the Blues
TTITLE8=Love and Marriage
TTITLE9=(Love Is) The Tender Trap
TTITLE10=You Make Me Feel So Young
TTITLE11=I've Got You Under My Skin
TTITLE12=(How Little It Matters) How Little We Know
TTITLE13=The Lady Is a Tramp
TTITLE14=Night and Day
TTITLE15=Witchcraft
TTITLE16=All the Way
TTITLE17=Come Fly with Me
TTITLE18=High Hopes
TTITLE19=Nice 'n' Easy
EXTD=YEAR: 1992
EXTT0=
EXTT1=
EXTT2=
EXTT3=
EXTT4=
EXTT5=
EXTT6=
EXTT7=
EXTT8=
EXTT9=
EXTT10=
EXTT11=
EXTT12=
EXTT13=
EXTT14=
EXTT15=
EXTT16=
EXTT17=
EXTT18=
EXTT19=
PLAYORDER=
